# xmcd CD database file
# Copyright (C) 1993-1998 Ti Kan
#
# Track frame offsets:
#	150
#	22062
#	37885
#	58522
#	79560
#	92477
#	107979
#	131710
#	149235
#	178977
#	200380
#	215682
#	237259
#	256465
#	272630
#
# Disc length: 3866 seconds
#
# Revision: 1
# Processed by: cddbd v1.4b41PL1 Copyright (c) Steve Scherf et al.
# Submitted via: CDValet v3.31 - Copyright (c) 1997 Greg Leichner
#
DISCID=e10f180f
DTITLE=Oliver and the Elements - Bone Idol
DYEAR=1900
DGENRE=
TTITLE0=Simple World
TTITLE1=House of Fun
TTITLE2=Stand Back
TTITLE3=Rhythm and Blues is Dancing Music
TTITLE4=Teach Me How To Dance
TTITLE5=Instead of Breaking This Heart
TTITLE6=Straits of Georgia
TTITLE7=Another Mule
TTITLE8=House Gig
TTITLE9=I Must Have Loved You
TTITLE10=I'm Gone
TTITLE11=Daddy's Got a New Girlfriend
TTITLE12=Lyin With the Lions
TTITLE13=Our Lady of Sorrow
TTITLE14=Walking Backwards
EXTD=
EXTT0=
EXTT1=
EXTT2=
EXTT3=
EXTT4=
EXTT5=
EXTT6=
EXTT7=
EXTT8=
EXTT9=
EXTT10=
EXTT11=
EXTT12=
EXTT13=
EXTT14=
PLAYORDER=
